<svg id="Capa_1" data-name="Capa 1" xmlns="http://www.w3.org/2000/svg" viewBox="0 0 25 25"><defs><style>.cls-1{fill:#fff;}</style></defs><path class="cls-1" d="M21.47,6.17a7.4,7.4,0,0,0-5.17-2h0a7.85,7.85,0,0,0-2.84.52,7.17,7.17,0,0,0-1,.48,8.86,8.86,0,0,0-3.68-.89A7.22,7.22,0,0,0,3.63,6.14a8.54,8.54,0,0,0-2.43,6.1v8.61H23.8V12.26A8.2,8.2,0,0,0,21.47,6.17Zm-9-.06a6.94,6.94,0,0,1,3.64,6.15v.33H9.31v-.33A7,7,0,0,1,12.42,6.11ZM8.47,20H2V12.27C2.22,6.9,5.75,5.05,8.71,5.1a7.85,7.85,0,0,1,2.85.59,6.31,6.31,0,0,0-.62.52,8,8,0,0,0-2.47,6.05Zm.84,0V13.43h6.75V20ZM23,20H16.89V12.26A7.71,7.71,0,0,0,14.3,6.42a7.89,7.89,0,0,0-1-.77,7.22,7.22,0,0,1,3-.67h0C19.62,5,23,7.24,23,12.26Z"/></svg>