<svg id="Capa_1" data-name="Capa 1" xmlns="http://www.w3.org/2000/svg" viewBox="0 0 100 100"><defs><style>.cls-1{fill:#fff;}</style></defs><path class="cls-1" d="M85.47,24.94A29.32,29.32,0,0,0,65,17h0A31.66,31.66,0,0,0,53.75,19a29.68,29.68,0,0,0-4.16,1.92,34.62,34.62,0,0,0-14.54-3.52,28.48,28.48,0,0,0-20.13,7.42C9,30.42,5.65,38.77,5.3,49V83H94.7V49C94.7,39.08,91.51,30.74,85.47,24.94ZM49.7,24.73A27.47,27.47,0,0,1,64.07,49v1.32H37.36V49.05C37.39,37.52,42.56,29.35,49.7,24.73Zm-15.64,55H8.61V49.07C9.33,27.84,23.27,20.53,35,20.71a30.86,30.86,0,0,1,11.27,2.36,27.88,27.88,0,0,0-2.45,2C37.45,31,34.08,39.28,34.06,49Zm3.3,0V53.66H64.07V79.73Zm54,0h-24V49a31.12,31.12,0,0,0-2.85-13.16A30.44,30.44,0,0,0,57.12,26a32.84,32.84,0,0,0-4.06-3.08A28.54,28.54,0,0,1,65,20.27h0c13.12,0,26.36,8.91,26.36,28.77Z"/></svg>