<svg id="Capa_1" data-name="Capa 1" xmlns="http://www.w3.org/2000/svg" viewBox="0 0 50 50"><defs><style>.cls-1{fill:#fff;}</style></defs><path class="cls-1" d="M43,12.26a14.85,14.85,0,0,0-10.39-4h0a16.18,16.18,0,0,0-5.72,1,15.53,15.53,0,0,0-2.11,1A17.71,17.71,0,0,0,17.4,8.43,14.46,14.46,0,0,0,7.17,12.21c-3,2.84-4.71,7.08-4.89,12.28v17.3H47.72V24.51C47.72,19.45,46.1,15.21,43,12.26Zm-18.18-.1a14,14,0,0,1,7.3,12.35v.67H18.58v-.66C18.59,18.66,21.22,14.51,24.85,12.16Zm-8,28H4V24.53C4.33,13.74,11.42,10,17.37,10.11a15.65,15.65,0,0,1,5.74,1.2,12.53,12.53,0,0,0-1.25,1,16.09,16.09,0,0,0-5,12.16Zm1.68,0V26.86H32.15V40.11Zm27.46,0H33.83V24.51a15.86,15.86,0,0,0-1.44-6.69,15.55,15.55,0,0,0-3.77-5,15.8,15.8,0,0,0-2.07-1.56,14.41,14.41,0,0,1,6.07-1.33h0c6.67,0,13.4,4.53,13.4,14.62Z"/></svg>