<svg id="Capa_1" data-name="Capa 1" xmlns="http://www.w3.org/2000/svg" viewBox="0 0 75 75"><defs><style>.cls-1{fill:#fff;}</style></defs><path class="cls-1" d="M66.07,17.32a23.59,23.59,0,0,0-16.46-6.43h0a25.59,25.59,0,0,0-9.06,1.65,23.76,23.76,0,0,0-3.35,1.55,27.85,27.85,0,0,0-11.71-2.84,23,23,0,0,0-16.21,6C4.46,21.73,1.78,28.46,1.5,36.68V64.11h72V36.73C73.5,28.7,70.93,22,66.07,17.32Zm-28.81-.17A22.13,22.13,0,0,1,48.84,36.73v1.06H27.32V36.73C27.34,27.45,31.51,20.87,37.26,17.15Zm-12.6,44.3H4.16V36.75c.59-17.1,11.82-23,21.26-22.84a24.94,24.94,0,0,1,9.08,1.9,23.92,23.92,0,0,0-2,1.64c-5.12,4.76-7.84,11.42-7.86,19.28Zm2.66,0v-21H48.84v21Zm43.52,0H51.49V36.73a24.83,24.83,0,0,0-2.29-10.6,24.43,24.43,0,0,0-6-8A26.38,26.38,0,0,0,40,15.66a23,23,0,0,1,9.62-2.11h0c10.57,0,21.24,7.18,21.24,23.18Z"/></svg>