<svg id="Capa_1" data-name="Capa 1" xmlns="http://www.w3.org/2000/svg" xmlns:xlink="http://www.w3.org/1999/xlink" viewBox="0 0 369 341"><defs><style>.cls-1{fill:#8b4343;}.cls-2{fill:#f2e9cc;}.cls-3{fill:url(#Degradado_sin_nombre_3);}.cls-4{fill:#cb6564;}.cls-5{fill:#fcf8e9;}.cls-6{fill:#1c1c1b;}.cls-7{fill:url(#Degradado_sin_nombre_3-2);}.cls-8{fill:url(#Degradado_sin_nombre_3-3);}.cls-9{fill:#fec6bd;}.cls-10{fill:#b55d5d;}.cls-11{fill:#f47458;}</style><linearGradient id="Degradado_sin_nombre_3" x1="92.26" y1="284.29" x2="213.23" y2="284.29" gradientUnits="userSpaceOnUse"><stop offset="0" stop-color="#fa7e80"/><stop offset="1" stop-color="#f16576"/></linearGradient><linearGradient id="Degradado_sin_nombre_3-2" x1="291.36" y1="113.72" x2="303.89" y2="113.72" xlink:href="#Degradado_sin_nombre_3"/><linearGradient id="Degradado_sin_nombre_3-3" x1="211.86" y1="158.53" x2="297.93" y2="158.53" xlink:href="#Degradado_sin_nombre_3"/></defs><path class="cls-1" d="M282.9,334.69H84.25a14,14,0,0,1-13.74-14.25V312a14,14,0,0,1,13.74-14.25H282.9a28.15,28.15,0,0,0-.36,36.54Z"/><path class="cls-2" d="M279.84,302H169.65a14,14,0,0,0-13.74,14.25h0a14,14,0,0,0,13.74,14.25h110.2A28.27,28.27,0,0,1,279.84,302Z"/><path class="cls-3" d="M213.11,272a.83.83,0,0,0-.82-1.17H107.18c-8.24,0-14.92,6-14.92,13.42h0c0,7.42,6.68,13.43,14.92,13.43H212.32a.83.83,0,0,0,.82-1.17h0A25.74,25.74,0,0,1,213.11,272Z"/><path class="cls-2" d="M212.45,273.37h-52.1c-9.67,0-17.5,5-17.5,11.25s7.83,11.25,17.5,11.25h52.44A25.69,25.69,0,0,1,212.45,273.37Z"/><path class="cls-4" d="M199,278.7h-6.79c-1.46,0-2.64.49-2.64,1.09v.1H199Z"/><path class="cls-4" d="M204.78,281.44c0-1.51-1.77-2.74-3.95-2.74h-8.71c1.66,0,3,.93,3,2.08l0,29.42,4.81-3.79,4.9,3.79Z"/><path class="cls-5" d="M193.79,269.9H132.62c-5.42,0-9.82-5.22-9.82-11.66h0c0-6.43,4.4-11.65,9.82-11.65h61.17a20.5,20.5,0,0,0-.44,22.65Z"/><path class="cls-4" d="M122.81,258.24h0c0-6.43,4.5-11.65,10.05-11.65H195a.57.57,0,0,0,.52-.61h0a.56.56,0,0,0-.52-.6H96.46c-6.13,0-11.1,5.76-11.1,12.86h0c0,7.11,5,12.87,11.1,12.87H195a.56.56,0,0,0,.52-.6h0a.56.56,0,0,0-.52-.61H132.86C127.31,269.9,122.81,264.68,122.81,258.24Z"/><path class="cls-1" d="M183.11,252.32h-6.79c-1.46,0-2.64.48-2.64,1.07v.1h9.43Z"/><path class="cls-1" d="M188.89,255c0-1.49-1.77-2.69-3.95-2.69h-8.71c1.66,0,3,.91,3,2l0,28.84,4.81-3.7,4.9,3.7Z"/><path class="cls-6" d="M291.24,74.13l9-2.38-6.12,81.63-10.84.36,5.47-76.65A3.31,3.31,0,0,1,291.24,74.13Z"/><path class="cls-7" d="M295,155.7a2.57,2.57,0,0,1-.62,0,3.62,3.62,0,0,1-3-4l6-76.75a3.3,3.3,0,0,1,3.53-3.22,3.64,3.64,0,0,1,3,4l-6,76.75A3.37,3.37,0,0,1,295,155.7Z"/><path class="cls-8" d="M211.86,159.79a1,1,0,0,0,0,.17h0c.28,3.12,2.7,5.46,5.4,5.22l76.25-6.83c2.71-.24,4.67-3,4.38-6.09,0-.13,0-.26,0-.39Z"/><path class="cls-9" d="M265,242.23c-5,2.77-20.25-2.08-20.25-2.52-.22,4.17-17.09,45-17.09,45v12.57s34.77,1.65,34.27-1.42-2.37-1.07-9.31-6.88c-.61-.51-10.35-2.77-7.72-8.53C250.17,268.83,261.44,249.48,265,242.23Z"/><path class="cls-4" d="M226.48,297.71h38c1.38-.14,1.7-1.25,1.21-1.93-1-1.4-8.29-4.7-13.19-6.89-8.54,1-23.55-2.28-24.93-4.23C224,289.51,225.71,297.56,226.48,297.71Z"/><path class="cls-10" d="M218.13,212.92c-.51-1.55,32.76-15.67,34.25-14,2.64,2.85-18,56.43-18,56.43l23.71,7.24s24.66-61.9,23.63-73.22-13.38-24.18-40.14-15.95S218.13,212.92,218.13,212.92Z"/><path class="cls-9" d="M287,249.27a126.06,126.06,0,0,0-18.72-1.41c.68,5.19,4,31.8,3.41,33.44a20,20,0,0,1-8,9.72s25.84,23.31,27.4,20.62-1.15-2.33-2.84-11.21c-.15-.79-3.89-13.19-4.12-19.88C283.77,267.79,286.84,256.36,287,249.27Z"/><path class="cls-4" d="M278.74,162.21c-3.6-1.92-13-2-23.25-1.32a236.16,236.16,0,0,0-59,11.57l-12.77,4.23,0-13.09s-40.63-6.8-42,3.27c-2.13,15.16.51,45.94,14,52.81,42,21.35,101-34,101.18-26.75.28,9.72,8.48,45.9,10.58,61.75,5.82.1,15.84.09,20.18-.9C288.61,222.74,289,167.69,278.74,162.21Z"/><path class="cls-4" d="M263,291.57l29,23.2c1.15.76,2.1.1,2.16-.73.11-1.72-3.44-8.89-5.84-13.69-7.24-4.64-16.78-16.74-16.61-19.12C268.67,283.82,262.49,291,263,291.57Z"/><path class="cls-1" d="M197.23,35.66c-1-8.92-2-17.88-9.39-24.41-6-5.3-13.6-6.19-21.12-3.36-21.31,8-10.33,27-37.51,46-8.44,5.93-17.75,10-24.11,18-8.9,11.18-5.54,24.62,2.57,33.6,38.81,42.95,82.14-15.06,85.25-29C195.23,66.16,197.86,41.4,197.23,35.66Z"/><path class="cls-5" d="M189.35,85.81a119.75,119.75,0,0,0-6.43-10.48c-3.29-5.85-11.79-8.8-11.79-8.8s-2.84.06-6.1.22a2.55,2.55,0,0,1-.62,1.08c-1.22.92-8.25-.27-12.79,2.81-15.22,13-11,76.26-9.81,96.23l46.33.44s-5.84-43,3.58-54C198.27,105.62,194.05,94.48,189.35,85.81Z"/><path class="cls-9" d="M168.47,45.14s-2.55,18.19-4.33,22.61,9.78,13.88,19.4,16.75S180.6,74.73,181,70s2.15-27.1,2.15-27.1Z"/><path class="cls-11" d="M182.66,49.32c.28-3.7.49-6.41.49-6.41l-14.68,2.23s-.38,2.14-.78,5.16C173.64,53.75,179,52.66,182.66,49.32Z"/><path class="cls-9" d="M173.07,11.92a16.65,16.65,0,0,0-9.36,6.75c-3.57,5.46-6,21.51,5.74,29s20.92-3.11,21.07-13.44S188.46,10.09,173.07,11.92Z"/><path class="cls-9" d="M193.22,31c-1,2.5-3,4-4.45,3.46S187,31.37,188,28.87s3-4,4.45-3.45S194.22,28.5,193.22,31Z"/><path class="cls-1" d="M174.8,11.58s-7.37,16.54-13.85,18-6.39,9.81-6.39,9.81.14-19.23,6.22-23.64S174.8,11.58,174.8,11.58Z"/><path class="cls-9" d="M163.52,33c.85,2.69.07,5.33-1.74,5.91s-4-1.13-4.84-3.82-.07-5.33,1.75-5.91S162.67,30.35,163.52,33Z"/><path class="cls-9" d="M246.4,152.5c-2.78-1-6.92-1.13-6.85-1.5.28-1.48,12.56,3.28,10.9,1.11-.92-1.2-10.11-5.48-12.35-4.77S221.7,152,221.7,152l-38.9-9.12S173,120.58,172,101.41a53.62,53.62,0,0,0-20.7,7c3.41,18.34,11.68,48,20.82,53.63,3.84,2.35,49.76-2.81,49.76-2.81s10.11-.71,11.77-1.35c1.25-.48,4.48-2.3,6.24-2.8,4-1.13,11.1,1.71,11.12.93C251.05,155.46,249.24,153.53,246.4,152.5Z"/><path class="cls-2" d="M172.26,80.93c-.37-5.9-2.61-11.59-8.89-13.43A12.72,12.72,0,0,0,152,70c-3.7,3-4.73,7.87-4.71,12.45A178.44,178.44,0,0,0,150,113.91a67.24,67.24,0,0,1,23.41-7.37C173.35,106.48,172.75,88.73,172.26,80.93Z"/><path class="cls-9" d="M230.41,220.38H73.91a8.8,8.8,0,0,0-8.8,8.8v7.4a8.8,8.8,0,0,0,8.8,8.8h156.5l-.08-.08A17.92,17.92,0,0,1,230.41,220.38Z"/><path class="cls-5" d="M227.64,224.08H144a8.8,8.8,0,0,0-8.8,8.8h0a8.8,8.8,0,0,0,8.8,8.8h83.66A17.94,17.94,0,0,1,227.64,224.08Z"/></svg>